<svg width="64" height="64" viewBox="0 0 64 64" xmlns="http://www.w3.org/2000/svg">
  <defs>
    <radialGradient id="evilGlow" cx="50%" cy="50%" r="50%">
      <stop offset="0%" style="stop-color:#ff1493;stop-opacity:0.9"/>
      <stop offset="100%" style="stop-color:#8b0000;stop-opacity:0.6"/>
    </radialGradient>
    <filter id="comicShadow" x="-20%" y="-20%" width="140%" height="140%">
      <feDropShadow dx="1" dy="1" stdDeviation="1" flood-color="#000000" flood-opacity="0.7"/>
    </filter>
  </defs>
  <!-- 透明背景 -->
  <!-- 漫画风格邪恶剪贴板主体 -->
  <path d="M20 15 L44 15 L44 35 L40 42 L32 40 L24 42 L20 35 Z" fill="url(#evilGlow)" stroke="#ff0000" stroke-width="3" stroke-linecap="round" filter="url(#comicShadow)"/>
  <!-- 突出剪切面板 - 高亮边框 -->
  <path d="M20 15 L44 15 L44 35 L40 42 L32 40 L24 42 L20 35 Z" fill="none" stroke="#ffffff" stroke-width="1" stroke-dasharray="2,2"/>
  <!-- 漫画眼睛 -->
  <ellipse cx="28" cy="25" rx="3" ry="4" fill="#ffffff"/>
  <ellipse cx="36" cy="25" rx="3" ry="4" fill="#ffffff"/>
  <circle cx="28" cy="25" r="1.5" fill="#000000"/>
  <circle cx="36" cy="25" r="1.5" fill="#000000"/>
  <!-- 邪恶嘴巴 -->
  <path d="M26 32 Q32 35 38 32" stroke="#ff0000" stroke-width="2" fill="none"/>
  <!-- 美感的线条在边缘盘旋 -->
  <path d="M5 32 Q15 10 32 5 Q49 10 59 32 Q49 54 32 59 Q15 54 5 32" fill="none" stroke="#ff69b4" stroke-width="1" opacity="0.8"/>
  <path d="M8 32 Q18 12 32 8 Q46 12 56 32 Q46 52 32 56 Q18 52 8 32" fill="none" stroke="#ff1493" stroke-width="1" opacity="0.6"/>
  <!-- 漫画尖刺 -->
  <polygon points="20,15 18,12 22,15" fill="#ff0000"/>
  <polygon points="44,15 46,12 42,15" fill="#ff0000"/>
  <!-- 抽象漫画符号 -->
  <path d="M30 20 L34 20 M32 20 L32 28" stroke="#ffffff" stroke-width="1"/>
</svg>
